<?xml version="1.0" encoding="UTF-8"?><svg id="Layer_1" xmlns="http://www.w3.org/2000/svg" viewBox="0 0 73.22 33.51"><defs><style>.cls-1{fill:#fff;}</style></defs><path class="cls-1" d="m21.6,16.45c0,7.49-3.71,13.07-10.76,13.07S0,23.94,0,16.45,3.71,3.42,10.83,3.42s10.76,5.58,10.76,13.03Zm-18.68,0c0,2.38.4,4.46,1.15,6.16l11.95-14.58c-1.29-1.33-2.99-2.09-5.18-2.09-5.29,0-7.92,4.39-7.92,10.51Zm15.77,0c0-2.38-.4-4.46-1.15-6.16l-11.95,14.58c1.29,1.37,3.02,2.12,5.25,2.12,5.25,0,7.85-4.39,7.85-10.55Z"/><path class="cls-1" d="m31.9,3.78h5.98v25.38h-2.95V6.66l.5-2.05h-.87c-.36,5.62-1.98,10.91-8.28,12.96l-.94-2.52c4.82-1.94,6.48-6.26,6.55-11.27Z"/><path class="cls-1" d="m49.54,10.83h3.85v4.07h-3.85v-4.07Zm0,14.25h3.85v4.07h-3.85v-4.07Z"/><path class="cls-1" d="m59.11,3.46h3.06l-1.98,8.57h-2.38l1.29-8.57Z"/><path class="cls-1" d="m71.1,33.51c-3.92-5.69-5.51-10.51-5.51-16.77s1.58-11.09,5.51-16.74l2.12,1.33c-1.15,2.02-1.94,3.53-2.66,5.18-1.22,2.84-1.98,6.66-1.98,10.26,0,3.85.79,7.59,2.27,10.83.68,1.48,1.33,2.77,2.38,4.57l-2.12,1.33Z"/></svg>