<?xml version="1.0" encoding="UTF-8"?><svg id="Layer_1" xmlns="http://www.w3.org/2000/svg" viewBox="0 0 54.98 30.56"><defs><style>.cls-1{fill:#fff;}</style></defs><g><rect class="cls-1" width="1.6" height="3.4"/><path class="cls-1" d="m23.4,3.4h-8.18V0h8.18v3.4Zm-10.9,0h-2.73V0h2.73v3.4Z"/><path class="cls-1" d="m50.66,3.4h-8.18V0h8.18v3.4Zm-10.9,0h-2.72V0h2.72v3.4Zm-10.9,0h-2.73V0h2.73v3.4Z"/><rect class="cls-1" x="53.38" width="1.6" height="3.4"/></g><g><rect class="cls-1" y="13.58" width="5.27" height="3.4"/><path class="cls-1" d="m19.65,16.98h-1.31v-3.4h1.31v3.4Zm-9.15,0h-3.92v-3.4h3.92v3.4Z"/><path class="cls-1" d="m45.79,16.98h-1.31v-3.4h1.31v3.4Zm-9.15,0h-3.92v-3.4h3.92v3.4Zm-5.23,0h-7.84v-3.4h7.84v3.4Z"/><rect class="cls-1" x="49.71" y="13.58" width="5.27" height="3.4"/></g><g><rect class="cls-1" y="27.16" width="1.6" height="3.4"/><path class="cls-1" d="m23.4,30.56h-8.18v-3.4h8.18v3.4Zm-10.9,0h-2.73v-3.4h2.73v3.4Z"/><path class="cls-1" d="m50.66,30.56h-8.18v-3.4h8.18v3.4Zm-10.9,0h-2.72v-3.4h2.72v3.4Zm-10.9,0h-2.73v-3.4h2.73v3.4Z"/><rect class="cls-1" x="53.38" y="27.16" width="1.6" height="3.4"/></g></svg>