<?xml version="1.0" encoding="UTF-8"?><svg id="Layer_1" xmlns="http://www.w3.org/2000/svg" viewBox="0 0 402.34 97.76"><defs><style>.cls-1{fill:#ff1a41;}.cls-2{fill:#fff;}</style></defs><g><path class="cls-1" d="m47.94,70.27v25.05h-2.7v-2.04h-23.31v-2.48h23.31v-18.06h-22.94v-2.48h25.64Z"/><path class="cls-1" d="m63.7,68.09c3.85,1.22,8.29,3.15,11.03,5.03l-1.41,2.33c-2.66-1.89-7.03-3.85-10.8-5.14l1.18-2.22Zm-.15,25.64c13.14-4.07,21.87-11.43,26.31-21.68.78.63,1.63,1.11,2.4,1.52-4.62,10.14-13.65,18.02-26.2,22.2-.04.33-.26.7-.52.85l-2-2.89Z"/><path class="cls-1" d="m124.6,93.21c1.48,0,5.44-.19,7.77-.55.04.81.07,1.85.15,2.66-2.44.3-6.14.41-7.66.41h-9.25c-5.59,0-8.29-2.4-8.29-7.7v-21.61l3.62.22c-.07.37-.33.59-1,.7v12.03c5.66-1.78,13.54-4.74,18.35-7.33l1.89,2.55c-.11.07-.26.11-.41.11-.18,0-.37-.04-.55-.11-4.48,2.26-12.91,5.4-19.28,7.29v6.18c0,3.77,1.81,5.14,5.62,5.14h9.03Zm7.7-29.49c2.29,0,4.14,1.85,4.14,4.14s-1.85,4.14-4.14,4.14-4.18-1.85-4.18-4.14,1.96-4.14,4.18-4.14Zm2.89,4.14c0-1.63-1.3-2.96-2.89-2.96s-2.92,1.33-2.92,2.96,1.29,2.96,2.92,2.96,2.89-1.41,2.89-2.96Z"/><path class="cls-1" d="m170.81,92.29v2.15h-25.24v-2.15h15.06c.59-3.74,1.59-11.1,1.96-14.88h-14.1v-2.15h14.84l.44-.15,1.81.89c-.04.15-.22.3-.45.33-.48,3.89-1.66,11.99-2.29,15.95h7.96Z"/><path class="cls-1" d="m182.91,79.26h30.9v2.63h-29.49c-.22.37-.7.63-1.18.7l-.22-3.33Z"/><path class="cls-1" d="m252.25,71.34c-.04.18-.22.33-.44.41-1.37,4.59-3.22,8.81-5.44,12.25,1.59.92,3.4,2.07,4.77,3.07l-1.55,2.44c-1.33-1.04-3.22-2.26-4.77-3.22-3.4,4.74-7.77,8.55-13.36,11.25-.41-.63-1.37-1.52-2.04-1.92,5.4-2.52,9.73-6.25,13.1-10.66-2.74-1.52-5.44-2.81-8.18-3.85l1.41-2.07c2.7.96,5.48,2.22,8.32,3.74,1.93-3.03,3.44-6.25,4.48-9.81h-12.54c-2.26,3.77-5.29,7.51-8.55,10.18-.48-.44-1.48-1.26-2.11-1.67,4.85-3.7,9.44-10.36,11.66-16.69l3.52.81c-.15.41-.52.52-1,.48-.52,1.22-1.37,3.03-2.07,4.4h12.29l.52-.15,2,1Z"/><path class="cls-1" d="m272.01,87.88c-.81,3.63-2.18,7.03-5.44,8.92l-2-1.44c3-1.7,4.51-4.77,5.18-8.14l2.26.67Zm7.07-13.43c0,4.88-1.37,9.92-10.43,12.54-.3-.52-.96-1.44-1.44-1.89,4.51-1.11,6.92-2.85,8.18-4.88-3.48.67-6.85,1.22-9.1,1.59-.04.26-.22.44-.48.52l-.93-2.55c2.89-.33,7.14-.96,11.4-1.55.26-.93.37-1.85.41-2.78h-9.55v-2.11h9.58v-3.15h-10.8v-2.15h10.8v-3.96l3.07.19c-.04.26-.22.44-.7.52v9.66Zm-2.07,19.83c0,1,.33,1.22,2.29,1.22h6.81c1.67,0,1.96-.59,2.11-4.55.55.41,1.59.78,2.26.96-.3,4.74-1.07,5.85-4.14,5.85h-7.18c-3.66,0-4.62-.67-4.62-3.48v-7.62l3.18.22c-.04.26-.22.44-.7.52v6.88Zm6.88-4.26c-1.29-1.78-4.29-4.07-6.99-5.48l1.74-1.48c2.7,1.33,5.74,3.55,7.14,5.37l-1.89,1.59Zm2.92-9.18v4.33h-2.37v-21.17l3.11.19c-.04.26-.26.44-.74.52v3.33h11.1v2.15h-11.1v3.15h9.77v2.11h-9.77v3.26h11.54v2.15h-11.54Zm9.99,15.73c-1.07-2.55-3.92-6.14-6.77-8.7l2.07-1.11c2.85,2.44,5.77,5.96,6.92,8.58l-2.22,1.22Z"/><path class="cls-1" d="m316.71,65.64c-.07.44-.41.7-1.15.81-.3,4.29-.67,14.1-.67,19.57s2.74,8.18,7.4,8.18,9.1-2.26,13.32-7.03c.37.59,1.22,1.78,1.66,2.18-4.33,4.92-9.58,7.51-15.02,7.51-6.73,0-10.18-3.89-10.18-10.88,0-4.66.33-16.13.59-20.68l4.03.33Z"/><path class="cls-1" d="m352.7,69.05c-.07.33-.48.56-1,.59-.44,2.77-.7,6.11-.7,9.21,0,1.37.07,2.7.15,3.89.44,6.29,3,10.1,5.85,10.06,1.48,0,3.4-3.77,4.74-7.92.52.52,1.52,1.22,2.15,1.59-1.7,5-3.85,9.07-6.92,9.14-4.7.07-7.96-5.62-8.47-12.73-.11-1.41-.15-2.96-.15-4.62,0-3.26.19-6.81.55-9.95l3.81.74Zm24.53,17.21c-1.04-6.48-4.33-11.14-9.32-13.91l1.63-2c5.4,2.89,9.36,8.21,10.43,15.06l-2.74.85Z"/></g><g><path class="cls-2" d="m0,.72h13.46c12.38,0,19.51,2.45,19.51,12.46,0,7.34-4.9,10.37-10.15,10.73v1.73c7.78.14,13.9,3.31,13.9,12.38,0,10.23-7.7,13.47-20.02,13.47H0V.72Zm13.68,21.82c8.28,0,13.39-1.22,13.39-8.42,0-7.85-5.11-8.35-13.39-8.35h-7.78v16.78h7.78Zm3.24,23.91c8.64,0,13.9-1.44,13.9-9.43,0-7.42-5.26-9.43-13.9-9.43H5.9v18.87h11.02Z"/><path class="cls-2" d="m42.19,46.44h10.08v-26.35l-7.42.65v-5.04l8.28-.72c3.38-.29,4.68,1.58,4.68,4.32v27.15h10.08v5.04h-25.71v-5.04Zm6.77-41.48c0-2.74,2.23-4.97,5.18-4.97s5.19,2.23,5.19,4.97c0,2.88-2.3,5.04-5.19,5.04s-5.18-2.16-5.18-5.04Z"/><path class="cls-2" d="m81.22,35.64v15.84h-5.9V15.7h5.9v6.19l-.94,4.1h1.66c1.44-6.48,5.98-11.02,13.75-11.02s13.32,4.68,13.32,14.62v21.89h-5.83v-21.1c0-7.49-2.95-10.37-9.07-10.37-7.56,0-12.89,5.98-12.89,15.63Z"/><path class="cls-2" d="m128.95,31.11l14.26-1.37c-.36-6.55-3.89-9.79-10.08-9.79-5.18,0-10.01,2.3-10.01,9.07h-5.76c0-7.42,5.62-14.04,15.77-14.04s15.99,6.62,15.99,16.2v15.27h5.26v5.04h-6.34c-2.74,0-4.25-1.51-4.25-4.18v-1.94l.94-3.74h-1.73c-1.37,5.47-5.18,10.58-13.82,10.58-10.37,0-11.95-6.91-11.95-10.66,0-5.69,3.38-9.58,11.74-10.44Zm.94,16.06c8.14,0,13.32-5.62,13.32-13.03l-13.25,1.37c-4.54.43-6.84,1.8-6.84,5.33,0,4.1,2.59,6.34,6.77,6.34Z"/><path class="cls-2" d="m161.14,19.95c0-3.38,1.58-5.04,4.97-4.9l19.87.65v5.04l-18.94-.65v31.39h-5.9v-31.54Z"/><path class="cls-2" d="m227.81,15.7l-15.55,35.43v10.01c0,2.74-1.58,4.39-4.97,4.25l-13.82-.65v-5.04l12.89.65v-9.22l-15.62-35.43h6.48l11.23,27.87v2.74h1.73v-2.74l11.23-27.87h6.41Z"/><path class="cls-2" d="m262.3,5.76h-17.57v45.72h-5.83V5.76h-17.71V.72h41.12v5.04Z"/><path class="cls-2" d="m273.31,14.98c10.08,0,16.71,6.41,16.71,17.43v2.3h-28.3c.36,6.77,3.6,12.6,12.46,12.6,5.9,0,9.86-2.88,11.16-8.35h5.9c-1.37,5.54-5.69,13.25-17.06,13.25-12.82,0-18.22-8.78-18.22-19.08,0-11.52,7.2-18.15,17.35-18.15Zm10.95,15.27c0-5.76-3.82-10.3-10.95-10.3s-11.59,4.54-11.59,10.3h22.54Z"/><path class="cls-2" d="m310.25,31.11l14.26-1.37c-.36-6.55-3.89-9.79-10.08-9.79-5.19,0-10.01,2.3-10.01,9.07h-5.76c0-7.42,5.62-14.04,15.77-14.04s15.98,6.62,15.98,16.2v15.27h5.26v5.04h-6.34c-2.74,0-4.25-1.51-4.25-4.18v-1.94l.94-3.74h-1.73c-1.37,5.47-5.19,10.58-13.83,10.58-10.37,0-11.95-6.91-11.95-10.66,0-5.69,3.38-9.58,11.74-10.44Zm.94,16.06c8.14,0,13.32-5.62,13.32-13.03l-13.25,1.37c-4.54.43-6.84,1.8-6.84,5.33,0,4.1,2.59,6.34,6.77,6.34Z"/><path class="cls-2" d="m342.43,19.95c0-3.38,1.58-5.04,4.97-4.9l19.87.65v5.04l-18.94-.65v31.39h-5.9v-31.54Z"/><path class="cls-2" d="m388.22,52.2c-11.59,0-16.34-5.4-16.34-13.9h5.9c0,6.19,3.6,9.07,10.51,9.07,5.54,0,8.14-1.3,8.14-4.97,0-4.68-4.82-5.47-10.66-7.27-6.77-2.16-12.24-4.25-12.24-10.73,0-5.69,4.83-9.43,13.03-9.43,11.16,0,14.55,6.12,14.55,12.03h-5.9c0-4.82-2.95-7.2-8.64-7.2-3.96,0-7.13,1.15-7.13,4.39,0,3.46,2.45,4.54,8.21,6.41,7.06,2.3,14.69,3.89,14.69,11.59,0,5.4-3.38,10.01-14.11,10.01Z"/></g></svg>